<svg id="Capa_1" data-name="Capa 1" xmlns="http://www.w3.org/2000/svg" viewBox="0 0 196.49 197.13"><defs><style>.cls-1,.cls-3{fill:#011839;}.cls-1{opacity:0.54;}.cls-2{fill:#fff;stroke:#6482a0;stroke-miterlimit:10;stroke-width:2px;}</style></defs><rect class="cls-1" y="12.31" width="184.82" height="184.82" rx="26.55"/><rect class="cls-2" x="11.67" width="184.82" height="184.82" rx="38.06"/><path class="cls-3" d="M167.33,147.54,167.1,27.9H154.4V141.22a13.09,13.09,0,0,1-7.15-3.36,81.86,81.86,0,0,1-6.46-7.65q-7.84-10.4-15.59-20.79t-14.88-20Q103.15,79.88,97,71.52C93,66,89.32,61,86.07,56.53s-5.92-8-8.07-10.89-3.54-4.76-4.16-5.72a46.15,46.15,0,0,0-6.69-7c-2.61-2.24-4.77-3.56-6.46-4a21.7,21.7,0,0,0-5.2-.92l-2.44-.1h-6a6.49,6.49,0,0,0-4.27,1.63,4.86,4.86,0,0,0-2,3.87V152.84h12.7V39.11q3.93,0,7.61,4.08T69.93,54Q81.47,69.89,90.24,81.8t16.26,22.12q7.52,10.18,14.55,19.67t15.12,20.48a20.52,20.52,0,0,0,5.53,5.09,25,25,0,0,0,6.94,2.86c1.84.41,3.46.72,4.84.92l2.08.31h5.54a6.3,6.3,0,0,0,4.27-1.74,5.17,5.17,0,0,0,2-4Z"/></svg>